<svg aria-roledescription="er" role="graphics-document document" viewBox="0 0 652.21875 840" style="max-width: 652.219px; background-color: white;" xmlns:xlink="http://www.w3.org/1999/xlink" xmlns="http://www.w3.org/2000/svg" width="100%" id="mermaid-1679708339979"><style>#mermaid-1679708339979{font-family:"trebuchet ms",verdana,arial,sans-serif;font-size:16px;fill:#333;}#mermaid-1679708339979 .error-icon{fill:#552222;}#mermaid-1679708339979 .error-text{fill:#552222;stroke:#552222;}#mermaid-1679708339979 .edge-thickness-normal{stroke-width:2px;}#mermaid-1679708339979 .edge-thickness-thick{stroke-width:3.5px;}#mermaid-1679708339979 .edge-pattern-solid{stroke-dasharray:0;}#mermaid-1679708339979 .edge-pattern-dashed{stroke-dasharray:3;}#mermaid-1679708339979 .edge-pattern-dotted{stroke-dasharray:2;}#mermaid-1679708339979 .marker{fill:#333333;stroke:#333333;}#mermaid-1679708339979 .marker.cross{stroke:#333333;}#mermaid-1679708339979 svg{font-family:"trebuchet ms",verdana,arial,sans-serif;font-size:16px;}#mermaid-1679708339979 .entityBox{fill:#ECECFF;stroke:#9370DB;}#mermaid-1679708339979 .attributeBoxOdd{fill:#ffffff;stroke:#9370DB;}#mermaid-1679708339979 .attributeBoxEven{fill:#f2f2f2;stroke:#9370DB;}#mermaid-1679708339979 .relationshipLabelBox{fill:hsl(80, 100%, 96.2745098039%);opacity:0.7;background-color:hsl(80, 100%, 96.2745098039%);}#mermaid-1679708339979 .relationshipLabelBox rect{opacity:0.5;}#mermaid-1679708339979 .relationshipLine{stroke:#333333;}#mermaid-1679708339979 .entityTitleText{text-anchor:middle;font-size:18px;fill:#333;}#mermaid-1679708339979 :root{--mermaid-font-family:"trebuchet ms",verdana,arial,sans-serif;}</style><g/><defs><marker orient="auto" markerHeight="18" markerWidth="18" refY="9" refX="0" id="ONLY_ONE_START"><path d="M9,0 L9,18 M15,0 L15,18" fill="none" stroke="gray"/></marker></defs><defs><marker orient="auto" markerHeight="18" markerWidth="18" refY="9" refX="18" id="ONLY_ONE_END"><path d="M3,0 L3,18 M9,0 L9,18" fill="none" stroke="gray"/></marker></defs><defs><marker orient="auto" markerHeight="18" markerWidth="30" refY="9" refX="0" id="ZERO_OR_ONE_START"><circle r="6" cy="9" cx="21" fill="white" stroke="gray"/><path d="M9,0 L9,18" fill="none" stroke="gray"/></marker></defs><defs><marker orient="auto" markerHeight="18" markerWidth="30" refY="9" refX="30" id="ZERO_OR_ONE_END"><circle r="6" cy="9" cx="9" fill="white" stroke="gray"/><path d="M21,0 L21,18" fill="none" stroke="gray"/></marker></defs><defs><marker orient="auto" markerHeight="36" markerWidth="45" refY="18" refX="18" id="ONE_OR_MORE_START"><path d="M0,18 Q 18,0 36,18 Q 18,36 0,18 M42,9 L42,27" fill="none" stroke="gray"/></marker></defs><defs><marker orient="auto" markerHeight="36" markerWidth="45" refY="18" refX="27" id="ONE_OR_MORE_END"><path d="M3,9 L3,27 M9,18 Q27,0 45,18 Q27,36 9,18" fill="none" stroke="gray"/></marker></defs><defs><marker orient="auto" markerHeight="36" markerWidth="57" refY="18" refX="18" id="ZERO_OR_MORE_START"><circle r="6" cy="18" cx="48" fill="white" stroke="gray"/><path d="M0,18 Q18,0 36,18 Q18,36 0,18" fill="none" stroke="gray"/></marker></defs><defs><marker orient="auto" markerHeight="36" markerWidth="57" refY="18" refX="39" id="ZERO_OR_MORE_END"><circle r="6" cy="18" cx="9" fill="white" stroke="gray"/><path d="M21,18 Q39,0 57,18 Q39,36 21,18" fill="none" stroke="gray"/></marker></defs><path style="stroke: gray; fill: none;" marker-start="url(#ONLY_ONE_START)" marker-end="url(#ZERO_OR_MORE_END)" d="M208.33984375,286L208.33984375,294.3333333333333C208.33984375,302.6666666666667,208.33984375,319.3333333333333,216.57291666666666,337.3839264983913C224.80598958333334,355.4345196634493,241.27213541666666,374.86903932689864,249.50520833333334,384.58629915862326L257.73828125,394.30355899034794" class="er relationshipLine"/><path style="stroke: gray; fill: none;" marker-start="url(#ONLY_ONE_START)" marker-end="url(#ZERO_OR_MORE_END)" d="M443.87890625,209L443.87890625,230.16666666666666C443.87890625,251.33333333333334,443.87890625,293.6666666666667,435.6458333333333,324.550593165058C427.4127604166667,355.4345196634493,410.9466145833333,374.86903932689864,402.7135416666667,384.58629915862326L394.48046875,394.30355899034794" class="er relationshipLine"/><path style="stroke: gray; fill: none;" marker-start="url(#ONLY_ONE_START)" marker-end="url(#ZERO_OR_MORE_END)" d="M257.73828125,514.8740801442268L229.41015625,531.3950667868556C201.08203125,547.9160534294846,144.42578125,580.9580267147422,116.09765625,607.6456800240378C87.76953125,634.3333333333334,87.76953125,654.6666666666666,87.76953125,664.8333333333334L87.76953125,675" class="er relationshipLine"/><path style="stroke: gray; fill: none;" marker-start="url(#ONLY_ONE_START)" marker-end="url(#ZERO_OR_MORE_END)" d="M326.109375,564L326.109375,572.3333333333334C326.109375,580.6666666666666,326.109375,597.3333333333334,326.109375,614C326.109375,630.6666666666666,326.109375,647.3333333333334,326.109375,655.6666666666666L326.109375,664" class="er relationshipLine"/><path style="stroke: gray; fill: none;" marker-start="url(#ONLY_ONE_START)" marker-end="url(#ZERO_OR_MORE_END)" d="M394.48046875,514.8740801442268L422.80859375,531.3950667868556C451.13671875,547.9160534294846,507.79296875,580.9580267147422,536.12109375,605.8123466907044C564.44921875,630.6666666666666,564.44921875,647.3333333333334,564.44921875,655.6666666666666L564.44921875,664" class="er relationshipLine"/><g transform="translate(140.5703125,20 )" id="entity-USER-6e7e2962-0c6f-577d-a7fd-2ce3a0cfd2c8"><rect height="266" width="135.5390625" y="0" x="0" class="er entityBox"/><text style="dominant-baseline: middle; text-anchor: middle; font-size: 12px;" transform="translate(67.76953125,12)" y="0" x="0" id="text-entity-USER-6e7e2962-0c6f-577d-a7fd-2ce3a0cfd2c8" class="er entityLabel">USER</text><rect height="22" width="62.34375" y="24" x="0" class="er attributeBoxOdd"/><text style="dominant-baseline: middle; font-size: 10.2px;" transform="translate(5,35)" y="0" x="0" id="text-entity-USER-6e7e2962-0c6f-577d-a7fd-2ce3a0cfd2c8-attr-1-type" class="er entityLabel">id</text><rect height="22" width="51.6328125" y="24" x="62.34375" class="er attributeBoxOdd"/><text style="dominant-baseline: middle; font-size: 10.2px;" transform="translate(67.34375,35)" y="0" x="0" id="text-entity-USER-6e7e2962-0c6f-577d-a7fd-2ce3a0cfd2c8-attr-1-name" class="er entityLabel">int</text><rect height="22" width="21.5625" y="24" x="113.9765625" class="er attributeBoxOdd"/><text style="dominant-baseline: middle; font-size: 10.2px;" transform="translate(118.9765625,35)" y="0" x="0" id="text-entity-USER-6e7e2962-0c6f-577d-a7fd-2ce3a0cfd2c8-attr-1-key" class="er entityLabel">PK</text><rect height="22" width="62.34375" y="46" x="0" class="er attributeBoxEven"/><text style="dominant-baseline: middle; font-size: 10.2px;" transform="translate(5,57)" y="0" x="0" id="text-entity-USER-6e7e2962-0c6f-577d-a7fd-2ce3a0cfd2c8-attr-2-type" class="er entityLabel">first_name</text><rect height="22" width="51.6328125" y="46" x="62.34375" class="er attributeBoxEven"/><text style="dominant-baseline: middle; font-size: 10.2px;" transform="translate(67.34375,57)" y="0" x="0" id="text-entity-USER-6e7e2962-0c6f-577d-a7fd-2ce3a0cfd2c8-attr-2-name" class="er entityLabel">varchar</text><rect height="22" width="21.5625" y="46" x="113.9765625" class="er attributeBoxEven"/><text style="dominant-baseline: middle; font-size: 10.2px;" transform="translate(118.9765625,57)" y="0" x="0" id="text-entity-USER-6e7e2962-0c6f-577d-a7fd-2ce3a0cfd2c8-attr-2-key" class="er entityLabel"/><rect height="22" width="62.34375" y="68" x="0" class="er attributeBoxOdd"/><text style="dominant-baseline: middle; font-size: 10.2px;" transform="translate(5,79)" y="0" x="0" id="text-entity-USER-6e7e2962-0c6f-577d-a7fd-2ce3a0cfd2c8-attr-3-type" class="er entityLabel">last_name</text><rect height="22" width="51.6328125" y="68" x="62.34375" class="er attributeBoxOdd"/><text style="dominant-baseline: middle; font-size: 10.2px;" transform="translate(67.34375,79)" y="0" x="0" id="text-entity-USER-6e7e2962-0c6f-577d-a7fd-2ce3a0cfd2c8-attr-3-name" class="er entityLabel">varchar</text><rect height="22" width="21.5625" y="68" x="113.9765625" class="er attributeBoxOdd"/><text style="dominant-baseline: middle; font-size: 10.2px;" transform="translate(118.9765625,79)" y="0" x="0" id="text-entity-USER-6e7e2962-0c6f-577d-a7fd-2ce3a0cfd2c8-attr-3-key" class="er entityLabel"/><rect height="22" width="62.34375" y="90" x="0" class="er attributeBoxEven"/><text style="dominant-baseline: middle; font-size: 10.2px;" transform="translate(5,101)" y="0" x="0" id="text-entity-USER-6e7e2962-0c6f-577d-a7fd-2ce3a0cfd2c8-attr-4-type" class="er entityLabel">email</text><rect height="22" width="51.6328125" y="90" x="62.34375" class="er attributeBoxEven"/><text style="dominant-baseline: middle; font-size: 10.2px;" transform="translate(67.34375,101)" y="0" x="0" id="text-entity-USER-6e7e2962-0c6f-577d-a7fd-2ce3a0cfd2c8-attr-4-name" class="er entityLabel">varchar</text><rect height="22" width="21.5625" y="90" x="113.9765625" class="er attributeBoxEven"/><text style="dominant-baseline: middle; font-size: 10.2px;" transform="translate(118.9765625,101)" y="0" x="0" id="text-entity-USER-6e7e2962-0c6f-577d-a7fd-2ce3a0cfd2c8-attr-4-key" class="er entityLabel"/><rect height="22" width="62.34375" y="112" x="0" class="er attributeBoxOdd"/><text style="dominant-baseline: middle; font-size: 10.2px;" transform="translate(5,123)" y="0" x="0" id="text-entity-USER-6e7e2962-0c6f-577d-a7fd-2ce3a0cfd2c8-attr-5-type" class="er entityLabel">password</text><rect height="22" width="51.6328125" y="112" x="62.34375" class="er attributeBoxOdd"/><text style="dominant-baseline: middle; font-size: 10.2px;" transform="translate(67.34375,123)" y="0" x="0" id="text-entity-USER-6e7e2962-0c6f-577d-a7fd-2ce3a0cfd2c8-attr-5-name" class="er entityLabel">varchar</text><rect height="22" width="21.5625" y="112" x="113.9765625" class="er attributeBoxOdd"/><text style="dominant-baseline: middle; font-size: 10.2px;" transform="translate(118.9765625,123)" y="0" x="0" id="text-entity-USER-6e7e2962-0c6f-577d-a7fd-2ce3a0cfd2c8-attr-5-key" class="er entityLabel"/><rect height="22" width="62.34375" y="134" x="0" class="er attributeBoxEven"/><text style="dominant-baseline: middle; font-size: 10.2px;" transform="translate(5,145)" y="0" x="0" id="text-entity-USER-6e7e2962-0c6f-577d-a7fd-2ce3a0cfd2c8-attr-6-type" class="er entityLabel">gender</text><rect height="22" width="51.6328125" y="134" x="62.34375" class="er attributeBoxEven"/><text style="dominant-baseline: middle; font-size: 10.2px;" transform="translate(67.34375,145)" y="0" x="0" id="text-entity-USER-6e7e2962-0c6f-577d-a7fd-2ce3a0cfd2c8-attr-6-name" class="er entityLabel">varchar</text><rect height="22" width="21.5625" y="134" x="113.9765625" class="er attributeBoxEven"/><text style="dominant-baseline: middle; font-size: 10.2px;" transform="translate(118.9765625,145)" y="0" x="0" id="text-entity-USER-6e7e2962-0c6f-577d-a7fd-2ce3a0cfd2c8-attr-6-key" class="er entityLabel"/><rect height="22" width="62.34375" y="156" x="0" class="er attributeBoxOdd"/><text style="dominant-baseline: middle; font-size: 10.2px;" transform="translate(5,167)" y="0" x="0" id="text-entity-USER-6e7e2962-0c6f-577d-a7fd-2ce3a0cfd2c8-attr-7-type" class="er entityLabel">dob</text><rect height="22" width="51.6328125" y="156" x="62.34375" class="er attributeBoxOdd"/><text style="dominant-baseline: middle; font-size: 10.2px;" transform="translate(67.34375,167)" y="0" x="0" id="text-entity-USER-6e7e2962-0c6f-577d-a7fd-2ce3a0cfd2c8-attr-7-name" class="er entityLabel">datetime</text><rect height="22" width="21.5625" y="156" x="113.9765625" class="er attributeBoxOdd"/><text style="dominant-baseline: middle; font-size: 10.2px;" transform="translate(118.9765625,167)" y="0" x="0" id="text-entity-USER-6e7e2962-0c6f-577d-a7fd-2ce3a0cfd2c8-attr-7-key" class="er entityLabel"/><rect height="22" width="62.34375" y="178" x="0" class="er attributeBoxEven"/><text style="dominant-baseline: middle; font-size: 10.2px;" transform="translate(5,189)" y="0" x="0" id="text-entity-USER-6e7e2962-0c6f-577d-a7fd-2ce3a0cfd2c8-attr-8-type" class="er entityLabel">weight</text><rect height="22" width="51.6328125" y="178" x="62.34375" class="er attributeBoxEven"/><text style="dominant-baseline: middle; font-size: 10.2px;" transform="translate(67.34375,189)" y="0" x="0" id="text-entity-USER-6e7e2962-0c6f-577d-a7fd-2ce3a0cfd2c8-attr-8-name" class="er entityLabel">float</text><rect height="22" width="21.5625" y="178" x="113.9765625" class="er attributeBoxEven"/><text style="dominant-baseline: middle; font-size: 10.2px;" transform="translate(118.9765625,189)" y="0" x="0" id="text-entity-USER-6e7e2962-0c6f-577d-a7fd-2ce3a0cfd2c8-attr-8-key" class="er entityLabel"/><rect height="22" width="62.34375" y="200" x="0" class="er attributeBoxOdd"/><text style="dominant-baseline: middle; font-size: 10.2px;" transform="translate(5,211)" y="0" x="0" id="text-entity-USER-6e7e2962-0c6f-577d-a7fd-2ce3a0cfd2c8-attr-9-type" class="er entityLabel">height</text><rect height="22" width="51.6328125" y="200" x="62.34375" class="er attributeBoxOdd"/><text style="dominant-baseline: middle; font-size: 10.2px;" transform="translate(67.34375,211)" y="0" x="0" id="text-entity-USER-6e7e2962-0c6f-577d-a7fd-2ce3a0cfd2c8-attr-9-name" class="er entityLabel">float</text><rect height="22" width="21.5625" y="200" x="113.9765625" class="er attributeBoxOdd"/><text style="dominant-baseline: middle; font-size: 10.2px;" transform="translate(118.9765625,211)" y="0" x="0" id="text-entity-USER-6e7e2962-0c6f-577d-a7fd-2ce3a0cfd2c8-attr-9-key" class="er entityLabel"/><rect height="22" width="62.34375" y="222" x="0" class="er attributeBoxEven"/><text style="dominant-baseline: middle; font-size: 10.2px;" transform="translate(5,233)" y="0" x="0" id="text-entity-USER-6e7e2962-0c6f-577d-a7fd-2ce3a0cfd2c8-attr-10-type" class="er entityLabel">created_at</text><rect height="22" width="51.6328125" y="222" x="62.34375" class="er attributeBoxEven"/><text style="dominant-baseline: middle; font-size: 10.2px;" transform="translate(67.34375,233)" y="0" x="0" id="text-entity-USER-6e7e2962-0c6f-577d-a7fd-2ce3a0cfd2c8-attr-10-name" class="er entityLabel">datetime</text><rect height="22" width="21.5625" y="222" x="113.9765625" class="er attributeBoxEven"/><text style="dominant-baseline: middle; font-size: 10.2px;" transform="translate(118.9765625,233)" y="0" x="0" id="text-entity-USER-6e7e2962-0c6f-577d-a7fd-2ce3a0cfd2c8-attr-10-key" class="er entityLabel"/><rect height="22" width="62.34375" y="244" x="0" class="er attributeBoxOdd"/><text style="dominant-baseline: middle; font-size: 10.2px;" transform="translate(5,255)" y="0" x="0" id="text-entity-USER-6e7e2962-0c6f-577d-a7fd-2ce3a0cfd2c8-attr-11-type" class="er entityLabel">updated_at</text><rect height="22" width="51.6328125" y="244" x="62.34375" class="er attributeBoxOdd"/><text style="dominant-baseline: middle; font-size: 10.2px;" transform="translate(67.34375,255)" y="0" x="0" id="text-entity-USER-6e7e2962-0c6f-577d-a7fd-2ce3a0cfd2c8-attr-11-name" class="er entityLabel">datetime</text><rect height="22" width="21.5625" y="244" x="113.9765625" class="er attributeBoxOdd"/><text style="dominant-baseline: middle; font-size: 10.2px;" transform="translate(118.9765625,255)" y="0" x="0" id="text-entity-USER-6e7e2962-0c6f-577d-a7fd-2ce3a0cfd2c8-attr-11-key" class="er entityLabel"/></g><g transform="translate(376.109375,97 )" id="entity-HABITCATEGORY-70707833-6bb3-5785-b133-79953d659d20"><rect height="112" width="135.5390625" y="0" x="0" class="er entityBox"/><text style="dominant-baseline: middle; text-anchor: middle; font-size: 12px;" transform="translate(67.76953125,12)" y="0" x="0" id="text-entity-HABITCATEGORY-70707833-6bb3-5785-b133-79953d659d20" class="er entityLabel">HABIT_CATEGORY</text><rect height="22" width="62.34375" y="24" x="0" class="er attributeBoxOdd"/><text style="dominant-baseline: middle; font-size: 10.2px;" transform="translate(5,35)" y="0" x="0" id="text-entity-HABITCATEGORY-70707833-6bb3-5785-b133-79953d659d20-attr-1-type" class="er entityLabel">id</text><rect height="22" width="51.6328125" y="24" x="62.34375" class="er attributeBoxOdd"/><text style="dominant-baseline: middle; font-size: 10.2px;" transform="translate(67.34375,35)" y="0" x="0" id="text-entity-HABITCATEGORY-70707833-6bb3-5785-b133-79953d659d20-attr-1-name" class="er entityLabel">int</text><rect height="22" width="21.5625" y="24" x="113.9765625" class="er attributeBoxOdd"/><text style="dominant-baseline: middle; font-size: 10.2px;" transform="translate(118.9765625,35)" y="0" x="0" id="text-entity-HABITCATEGORY-70707833-6bb3-5785-b133-79953d659d20-attr-1-key" class="er entityLabel">PK</text><rect height="22" width="62.34375" y="46" x="0" class="er attributeBoxEven"/><text style="dominant-baseline: middle; font-size: 10.2px;" transform="translate(5,57)" y="0" x="0" id="text-entity-HABITCATEGORY-70707833-6bb3-5785-b133-79953d659d20-attr-2-type" class="er entityLabel">name</text><rect height="22" width="51.6328125" y="46" x="62.34375" class="er attributeBoxEven"/><text style="dominant-baseline: middle; font-size: 10.2px;" transform="translate(67.34375,57)" y="0" x="0" id="text-entity-HABITCATEGORY-70707833-6bb3-5785-b133-79953d659d20-attr-2-name" class="er entityLabel">varchar</text><rect height="22" width="21.5625" y="46" x="113.9765625" class="er attributeBoxEven"/><text style="dominant-baseline: middle; font-size: 10.2px;" transform="translate(118.9765625,57)" y="0" x="0" id="text-entity-HABITCATEGORY-70707833-6bb3-5785-b133-79953d659d20-attr-2-key" class="er entityLabel"/><rect height="22" width="62.34375" y="68" x="0" class="er attributeBoxOdd"/><text style="dominant-baseline: middle; font-size: 10.2px;" transform="translate(5,79)" y="0" x="0" id="text-entity-HABITCATEGORY-70707833-6bb3-5785-b133-79953d659d20-attr-3-type" class="er entityLabel">created_at</text><rect height="22" width="51.6328125" y="68" x="62.34375" class="er attributeBoxOdd"/><text style="dominant-baseline: middle; font-size: 10.2px;" transform="translate(67.34375,79)" y="0" x="0" id="text-entity-HABITCATEGORY-70707833-6bb3-5785-b133-79953d659d20-attr-3-name" class="er entityLabel">datetime</text><rect height="22" width="21.5625" y="68" x="113.9765625" class="er attributeBoxOdd"/><text style="dominant-baseline: middle; font-size: 10.2px;" transform="translate(118.9765625,79)" y="0" x="0" id="text-entity-HABITCATEGORY-70707833-6bb3-5785-b133-79953d659d20-attr-3-key" class="er entityLabel"/><rect height="22" width="62.34375" y="90" x="0" class="er attributeBoxEven"/><text style="dominant-baseline: middle; font-size: 10.2px;" transform="translate(5,101)" y="0" x="0" id="text-entity-HABITCATEGORY-70707833-6bb3-5785-b133-79953d659d20-attr-4-type" class="er entityLabel">updated_at</text><rect height="22" width="51.6328125" y="90" x="62.34375" class="er attributeBoxEven"/><text style="dominant-baseline: middle; font-size: 10.2px;" transform="translate(67.34375,101)" y="0" x="0" id="text-entity-HABITCATEGORY-70707833-6bb3-5785-b133-79953d659d20-attr-4-name" class="er entityLabel">datetime</text><rect height="22" width="21.5625" y="90" x="113.9765625" class="er attributeBoxEven"/><text style="dominant-baseline: middle; font-size: 10.2px;" transform="translate(118.9765625,101)" y="0" x="0" id="text-entity-HABITCATEGORY-70707833-6bb3-5785-b133-79953d659d20-attr-4-key" class="er entityLabel"/></g><g transform="translate(257.73828125,386 )" id="entity-HABIT-50cafd61-dba2-51f6-800d-eb98319f89a1"><rect height="178" width="136.7421875" y="0" x="0" class="er entityBox"/><text style="dominant-baseline: middle; text-anchor: middle; font-size: 12px;" transform="translate(68.37109375,12)" y="0" x="0" id="text-entity-HABIT-50cafd61-dba2-51f6-800d-eb98319f89a1" class="er entityLabel">HABIT</text><rect height="22" width="63.546875" y="24" x="0" class="er attributeBoxOdd"/><text style="dominant-baseline: middle; font-size: 10.2px;" transform="translate(5,35)" y="0" x="0" id="text-entity-HABIT-50cafd61-dba2-51f6-800d-eb98319f89a1-attr-1-type" class="er entityLabel">id</text><rect height="22" width="51.6328125" y="24" x="63.546875" class="er attributeBoxOdd"/><text style="dominant-baseline: middle; font-size: 10.2px;" transform="translate(68.546875,35)" y="0" x="0" id="text-entity-HABIT-50cafd61-dba2-51f6-800d-eb98319f89a1-attr-1-name" class="er entityLabel">int</text><rect height="22" width="21.5625" y="24" x="115.1796875" class="er attributeBoxOdd"/><text style="dominant-baseline: middle; font-size: 10.2px;" transform="translate(120.1796875,35)" y="0" x="0" id="text-entity-HABIT-50cafd61-dba2-51f6-800d-eb98319f89a1-attr-1-key" class="er entityLabel">PK</text><rect height="22" width="63.546875" y="46" x="0" class="er attributeBoxEven"/><text style="dominant-baseline: middle; font-size: 10.2px;" transform="translate(5,57)" y="0" x="0" id="text-entity-HABIT-50cafd61-dba2-51f6-800d-eb98319f89a1-attr-2-type" class="er entityLabel">user_id</text><rect height="22" width="51.6328125" y="46" x="63.546875" class="er attributeBoxEven"/><text style="dominant-baseline: middle; font-size: 10.2px;" transform="translate(68.546875,57)" y="0" x="0" id="text-entity-HABIT-50cafd61-dba2-51f6-800d-eb98319f89a1-attr-2-name" class="er entityLabel">int</text><rect height="22" width="21.5625" y="46" x="115.1796875" class="er attributeBoxEven"/><text style="dominant-baseline: middle; font-size: 10.2px;" transform="translate(120.1796875,57)" y="0" x="0" id="text-entity-HABIT-50cafd61-dba2-51f6-800d-eb98319f89a1-attr-2-key" class="er entityLabel">FK</text><rect height="22" width="63.546875" y="68" x="0" class="er attributeBoxOdd"/><text style="dominant-baseline: middle; font-size: 10.2px;" transform="translate(5,79)" y="0" x="0" id="text-entity-HABIT-50cafd61-dba2-51f6-800d-eb98319f89a1-attr-3-type" class="er entityLabel">category_id</text><rect height="22" width="51.6328125" y="68" x="63.546875" class="er attributeBoxOdd"/><text style="dominant-baseline: middle; font-size: 10.2px;" transform="translate(68.546875,79)" y="0" x="0" id="text-entity-HABIT-50cafd61-dba2-51f6-800d-eb98319f89a1-attr-3-name" class="er entityLabel">int</text><rect height="22" width="21.5625" y="68" x="115.1796875" class="er attributeBoxOdd"/><text style="dominant-baseline: middle; font-size: 10.2px;" transform="translate(120.1796875,79)" y="0" x="0" id="text-entity-HABIT-50cafd61-dba2-51f6-800d-eb98319f89a1-attr-3-key" class="er entityLabel">FK</text><rect height="22" width="63.546875" y="90" x="0" class="er attributeBoxEven"/><text style="dominant-baseline: middle; font-size: 10.2px;" transform="translate(5,101)" y="0" x="0" id="text-entity-HABIT-50cafd61-dba2-51f6-800d-eb98319f89a1-attr-4-type" class="er entityLabel">name</text><rect height="22" width="51.6328125" y="90" x="63.546875" class="er attributeBoxEven"/><text style="dominant-baseline: middle; font-size: 10.2px;" transform="translate(68.546875,101)" y="0" x="0" id="text-entity-HABIT-50cafd61-dba2-51f6-800d-eb98319f89a1-attr-4-name" class="er entityLabel">varchar</text><rect height="22" width="21.5625" y="90" x="115.1796875" class="er attributeBoxEven"/><text style="dominant-baseline: middle; font-size: 10.2px;" transform="translate(120.1796875,101)" y="0" x="0" id="text-entity-HABIT-50cafd61-dba2-51f6-800d-eb98319f89a1-attr-4-key" class="er entityLabel"/><rect height="22" width="63.546875" y="112" x="0" class="er attributeBoxOdd"/><text style="dominant-baseline: middle; font-size: 10.2px;" transform="translate(5,123)" y="0" x="0" id="text-entity-HABIT-50cafd61-dba2-51f6-800d-eb98319f89a1-attr-5-type" class="er entityLabel">description</text><rect height="22" width="51.6328125" y="112" x="63.546875" class="er attributeBoxOdd"/><text style="dominant-baseline: middle; font-size: 10.2px;" transform="translate(68.546875,123)" y="0" x="0" id="text-entity-HABIT-50cafd61-dba2-51f6-800d-eb98319f89a1-attr-5-name" class="er entityLabel">varchar</text><rect height="22" width="21.5625" y="112" x="115.1796875" class="er attributeBoxOdd"/><text style="dominant-baseline: middle; font-size: 10.2px;" transform="translate(120.1796875,123)" y="0" x="0" id="text-entity-HABIT-50cafd61-dba2-51f6-800d-eb98319f89a1-attr-5-key" class="er entityLabel"/><rect height="22" width="63.546875" y="134" x="0" class="er attributeBoxEven"/><text style="dominant-baseline: middle; font-size: 10.2px;" transform="translate(5,145)" y="0" x="0" id="text-entity-HABIT-50cafd61-dba2-51f6-800d-eb98319f89a1-attr-6-type" class="er entityLabel">created_at</text><rect height="22" width="51.6328125" y="134" x="63.546875" class="er attributeBoxEven"/><text style="dominant-baseline: middle; font-size: 10.2px;" transform="translate(68.546875,145)" y="0" x="0" id="text-entity-HABIT-50cafd61-dba2-51f6-800d-eb98319f89a1-attr-6-name" class="er entityLabel">datetime</text><rect height="22" width="21.5625" y="134" x="115.1796875" class="er attributeBoxEven"/><text style="dominant-baseline: middle; font-size: 10.2px;" transform="translate(120.1796875,145)" y="0" x="0" id="text-entity-HABIT-50cafd61-dba2-51f6-800d-eb98319f89a1-attr-6-key" class="er entityLabel"/><rect height="22" width="63.546875" y="156" x="0" class="er attributeBoxOdd"/><text style="dominant-baseline: middle; font-size: 10.2px;" transform="translate(5,167)" y="0" x="0" id="text-entity-HABIT-50cafd61-dba2-51f6-800d-eb98319f89a1-attr-7-type" class="er entityLabel">updated_at</text><rect height="22" width="51.6328125" y="156" x="63.546875" class="er attributeBoxOdd"/><text style="dominant-baseline: middle; font-size: 10.2px;" transform="translate(68.546875,167)" y="0" x="0" id="text-entity-HABIT-50cafd61-dba2-51f6-800d-eb98319f89a1-attr-7-name" class="er entityLabel">datetime</text><rect height="22" width="21.5625" y="156" x="115.1796875" class="er attributeBoxOdd"/><text style="dominant-baseline: middle; font-size: 10.2px;" transform="translate(120.1796875,167)" y="0" x="0" id="text-entity-HABIT-50cafd61-dba2-51f6-800d-eb98319f89a1-attr-7-key" class="er entityLabel"/></g><g transform="translate(20,675 )" id="entity-DAILYRECORD-f92c1cdc-53c3-533b-aff4-80d5d860d531"><rect height="134" width="135.5390625" y="0" x="0" class="er entityBox"/><text style="dominant-baseline: middle; text-anchor: middle; font-size: 12px;" transform="translate(67.76953125,12)" y="0" x="0" id="text-entity-DAILYRECORD-f92c1cdc-53c3-533b-aff4-80d5d860d531" class="er entityLabel">DAILY_RECORD</text><rect height="22" width="62.34375" y="24" x="0" class="er attributeBoxOdd"/><text style="dominant-baseline: middle; font-size: 10.2px;" transform="translate(5,35)" y="0" x="0" id="text-entity-DAILYRECORD-f92c1cdc-53c3-533b-aff4-80d5d860d531-attr-1-type" class="er entityLabel">id</text><rect height="22" width="51.6328125" y="24" x="62.34375" class="er attributeBoxOdd"/><text style="dominant-baseline: middle; font-size: 10.2px;" transform="translate(67.34375,35)" y="0" x="0" id="text-entity-DAILYRECORD-f92c1cdc-53c3-533b-aff4-80d5d860d531-attr-1-name" class="er entityLabel">int</text><rect height="22" width="21.5625" y="24" x="113.9765625" class="er attributeBoxOdd"/><text style="dominant-baseline: middle; font-size: 10.2px;" transform="translate(118.9765625,35)" y="0" x="0" id="text-entity-DAILYRECORD-f92c1cdc-53c3-533b-aff4-80d5d860d531-attr-1-key" class="er entityLabel">PK</text><rect height="22" width="62.34375" y="46" x="0" class="er attributeBoxEven"/><text style="dominant-baseline: middle; font-size: 10.2px;" transform="translate(5,57)" y="0" x="0" id="text-entity-DAILYRECORD-f92c1cdc-53c3-533b-aff4-80d5d860d531-attr-2-type" class="er entityLabel">habit_id</text><rect height="22" width="51.6328125" y="46" x="62.34375" class="er attributeBoxEven"/><text style="dominant-baseline: middle; font-size: 10.2px;" transform="translate(67.34375,57)" y="0" x="0" id="text-entity-DAILYRECORD-f92c1cdc-53c3-533b-aff4-80d5d860d531-attr-2-name" class="er entityLabel">int</text><rect height="22" width="21.5625" y="46" x="113.9765625" class="er attributeBoxEven"/><text style="dominant-baseline: middle; font-size: 10.2px;" transform="translate(118.9765625,57)" y="0" x="0" id="text-entity-DAILYRECORD-f92c1cdc-53c3-533b-aff4-80d5d860d531-attr-2-key" class="er entityLabel">FK</text><rect height="22" width="62.34375" y="68" x="0" class="er attributeBoxOdd"/><text style="dominant-baseline: middle; font-size: 10.2px;" transform="translate(5,79)" y="0" x="0" id="text-entity-DAILYRECORD-f92c1cdc-53c3-533b-aff4-80d5d860d531-attr-3-type" class="er entityLabel">date</text><rect height="22" width="51.6328125" y="68" x="62.34375" class="er attributeBoxOdd"/><text style="dominant-baseline: middle; font-size: 10.2px;" transform="translate(67.34375,79)" y="0" x="0" id="text-entity-DAILYRECORD-f92c1cdc-53c3-533b-aff4-80d5d860d531-attr-3-name" class="er entityLabel">date</text><rect height="22" width="21.5625" y="68" x="113.9765625" class="er attributeBoxOdd"/><text style="dominant-baseline: middle; font-size: 10.2px;" transform="translate(118.9765625,79)" y="0" x="0" id="text-entity-DAILYRECORD-f92c1cdc-53c3-533b-aff4-80d5d860d531-attr-3-key" class="er entityLabel"/><rect height="22" width="62.34375" y="90" x="0" class="er attributeBoxEven"/><text style="dominant-baseline: middle; font-size: 10.2px;" transform="translate(5,101)" y="0" x="0" id="text-entity-DAILYRECORD-f92c1cdc-53c3-533b-aff4-80d5d860d531-attr-4-type" class="er entityLabel">created_at</text><rect height="22" width="51.6328125" y="90" x="62.34375" class="er attributeBoxEven"/><text style="dominant-baseline: middle; font-size: 10.2px;" transform="translate(67.34375,101)" y="0" x="0" id="text-entity-DAILYRECORD-f92c1cdc-53c3-533b-aff4-80d5d860d531-attr-4-name" class="er entityLabel">datetime</text><rect height="22" width="21.5625" y="90" x="113.9765625" class="er attributeBoxEven"/><text style="dominant-baseline: middle; font-size: 10.2px;" transform="translate(118.9765625,101)" y="0" x="0" id="text-entity-DAILYRECORD-f92c1cdc-53c3-533b-aff4-80d5d860d531-attr-4-key" class="er entityLabel"/><rect height="22" width="62.34375" y="112" x="0" class="er attributeBoxOdd"/><text style="dominant-baseline: middle; font-size: 10.2px;" transform="translate(5,123)" y="0" x="0" id="text-entity-DAILYRECORD-f92c1cdc-53c3-533b-aff4-80d5d860d531-attr-5-type" class="er entityLabel">updated_at</text><rect height="22" width="51.6328125" y="112" x="62.34375" class="er attributeBoxOdd"/><text style="dominant-baseline: middle; font-size: 10.2px;" transform="translate(67.34375,123)" y="0" x="0" id="text-entity-DAILYRECORD-f92c1cdc-53c3-533b-aff4-80d5d860d531-attr-5-name" class="er entityLabel">datetime</text><rect height="22" width="21.5625" y="112" x="113.9765625" class="er attributeBoxOdd"/><text style="dominant-baseline: middle; font-size: 10.2px;" transform="translate(118.9765625,123)" y="0" x="0" id="text-entity-DAILYRECORD-f92c1cdc-53c3-533b-aff4-80d5d860d531-attr-5-key" class="er entityLabel"/></g><g transform="translate(255.5390625,664 )" id="entity-GOAL-6dcc21b1-3428-594a-8f5d-b1e8f0a4d080"><rect height="156" width="141.140625" y="0" x="0" class="er entityBox"/><text style="dominant-baseline: middle; text-anchor: middle; font-size: 12px;" transform="translate(70.5703125,12)" y="0" x="0" id="text-entity-GOAL-6dcc21b1-3428-594a-8f5d-b1e8f0a4d080" class="er entityLabel">GOAL</text><rect height="22" width="67.9453125" y="24" x="0" class="er attributeBoxOdd"/><text style="dominant-baseline: middle; font-size: 10.2px;" transform="translate(5,35)" y="0" x="0" id="text-entity-GOAL-6dcc21b1-3428-594a-8f5d-b1e8f0a4d080-attr-1-type" class="er entityLabel">id</text><rect height="22" width="51.6328125" y="24" x="67.9453125" class="er attributeBoxOdd"/><text style="dominant-baseline: middle; font-size: 10.2px;" transform="translate(72.9453125,35)" y="0" x="0" id="text-entity-GOAL-6dcc21b1-3428-594a-8f5d-b1e8f0a4d080-attr-1-name" class="er entityLabel">int</text><rect height="22" width="21.5625" y="24" x="119.578125" class="er attributeBoxOdd"/><text style="dominant-baseline: middle; font-size: 10.2px;" transform="translate(124.578125,35)" y="0" x="0" id="text-entity-GOAL-6dcc21b1-3428-594a-8f5d-b1e8f0a4d080-attr-1-key" class="er entityLabel">PK</text><rect height="22" width="67.9453125" y="46" x="0" class="er attributeBoxEven"/><text style="dominant-baseline: middle; font-size: 10.2px;" transform="translate(5,57)" y="0" x="0" id="text-entity-GOAL-6dcc21b1-3428-594a-8f5d-b1e8f0a4d080-attr-2-type" class="er entityLabel">habit_id</text><rect height="22" width="51.6328125" y="46" x="67.9453125" class="er attributeBoxEven"/><text style="dominant-baseline: middle; font-size: 10.2px;" transform="translate(72.9453125,57)" y="0" x="0" id="text-entity-GOAL-6dcc21b1-3428-594a-8f5d-b1e8f0a4d080-attr-2-name" class="er entityLabel">int</text><rect height="22" width="21.5625" y="46" x="119.578125" class="er attributeBoxEven"/><text style="dominant-baseline: middle; font-size: 10.2px;" transform="translate(124.578125,57)" y="0" x="0" id="text-entity-GOAL-6dcc21b1-3428-594a-8f5d-b1e8f0a4d080-attr-2-key" class="er entityLabel">FK</text><rect height="22" width="67.9453125" y="68" x="0" class="er attributeBoxOdd"/><text style="dominant-baseline: middle; font-size: 10.2px;" transform="translate(5,79)" y="0" x="0" id="text-entity-GOAL-6dcc21b1-3428-594a-8f5d-b1e8f0a4d080-attr-3-type" class="er entityLabel">frequency</text><rect height="22" width="51.6328125" y="68" x="67.9453125" class="er attributeBoxOdd"/><text style="dominant-baseline: middle; font-size: 10.2px;" transform="translate(72.9453125,79)" y="0" x="0" id="text-entity-GOAL-6dcc21b1-3428-594a-8f5d-b1e8f0a4d080-attr-3-name" class="er entityLabel">varchar</text><rect height="22" width="21.5625" y="68" x="119.578125" class="er attributeBoxOdd"/><text style="dominant-baseline: middle; font-size: 10.2px;" transform="translate(124.578125,79)" y="0" x="0" id="text-entity-GOAL-6dcc21b1-3428-594a-8f5d-b1e8f0a4d080-attr-3-key" class="er entityLabel"/><rect height="22" width="67.9453125" y="90" x="0" class="er attributeBoxEven"/><text style="dominant-baseline: middle; font-size: 10.2px;" transform="translate(5,101)" y="0" x="0" id="text-entity-GOAL-6dcc21b1-3428-594a-8f5d-b1e8f0a4d080-attr-4-type" class="er entityLabel">target_value</text><rect height="22" width="51.6328125" y="90" x="67.9453125" class="er attributeBoxEven"/><text style="dominant-baseline: middle; font-size: 10.2px;" transform="translate(72.9453125,101)" y="0" x="0" id="text-entity-GOAL-6dcc21b1-3428-594a-8f5d-b1e8f0a4d080-attr-4-name" class="er entityLabel">int</text><rect height="22" width="21.5625" y="90" x="119.578125" class="er attributeBoxEven"/><text style="dominant-baseline: middle; font-size: 10.2px;" transform="translate(124.578125,101)" y="0" x="0" id="text-entity-GOAL-6dcc21b1-3428-594a-8f5d-b1e8f0a4d080-attr-4-key" class="er entityLabel"/><rect height="22" width="67.9453125" y="112" x="0" class="er attributeBoxOdd"/><text style="dominant-baseline: middle; font-size: 10.2px;" transform="translate(5,123)" y="0" x="0" id="text-entity-GOAL-6dcc21b1-3428-594a-8f5d-b1e8f0a4d080-attr-5-type" class="er entityLabel">created_at</text><rect height="22" width="51.6328125" y="112" x="67.9453125" class="er attributeBoxOdd"/><text style="dominant-baseline: middle; font-size: 10.2px;" transform="translate(72.9453125,123)" y="0" x="0" id="text-entity-GOAL-6dcc21b1-3428-594a-8f5d-b1e8f0a4d080-attr-5-name" class="er entityLabel">datetime</text><rect height="22" width="21.5625" y="112" x="119.578125" class="er attributeBoxOdd"/><text style="dominant-baseline: middle; font-size: 10.2px;" transform="translate(124.578125,123)" y="0" x="0" id="text-entity-GOAL-6dcc21b1-3428-594a-8f5d-b1e8f0a4d080-attr-5-key" class="er entityLabel"/><rect height="22" width="67.9453125" y="134" x="0" class="er attributeBoxEven"/><text style="dominant-baseline: middle; font-size: 10.2px;" transform="translate(5,145)" y="0" x="0" id="text-entity-GOAL-6dcc21b1-3428-594a-8f5d-b1e8f0a4d080-attr-6-type" class="er entityLabel">updated_at</text><rect height="22" width="51.6328125" y="134" x="67.9453125" class="er attributeBoxEven"/><text style="dominant-baseline: middle; font-size: 10.2px;" transform="translate(72.9453125,145)" y="0" x="0" id="text-entity-GOAL-6dcc21b1-3428-594a-8f5d-b1e8f0a4d080-attr-6-name" class="er entityLabel">datetime</text><rect height="22" width="21.5625" y="134" x="119.578125" class="er attributeBoxEven"/><text style="dominant-baseline: middle; font-size: 10.2px;" transform="translate(124.578125,145)" y="0" x="0" id="text-entity-GOAL-6dcc21b1-3428-594a-8f5d-b1e8f0a4d080-attr-6-key" class="er entityLabel"/></g><g transform="translate(496.6796875,664 )" id="entity-REMINDER-70d563b7-26ae-5327-8d3b-834d24d606bc"><rect height="156" width="135.5390625" y="0" x="0" class="er entityBox"/><text style="dominant-baseline: middle; text-anchor: middle; font-size: 12px;" transform="translate(67.76953125,12)" y="0" x="0" id="text-entity-REMINDER-70d563b7-26ae-5327-8d3b-834d24d606bc" class="er entityLabel">REMINDER</text><rect height="22" width="62.34375" y="24" x="0" class="er attributeBoxOdd"/><text style="dominant-baseline: middle; font-size: 10.2px;" transform="translate(5,35)" y="0" x="0" id="text-entity-REMINDER-70d563b7-26ae-5327-8d3b-834d24d606bc-attr-1-type" class="er entityLabel">id</text><rect height="22" width="51.6328125" y="24" x="62.34375" class="er attributeBoxOdd"/><text style="dominant-baseline: middle; font-size: 10.2px;" transform="translate(67.34375,35)" y="0" x="0" id="text-entity-REMINDER-70d563b7-26ae-5327-8d3b-834d24d606bc-attr-1-name" class="er entityLabel">int</text><rect height="22" width="21.5625" y="24" x="113.9765625" class="er attributeBoxOdd"/><text style="dominant-baseline: middle; font-size: 10.2px;" transform="translate(118.9765625,35)" y="0" x="0" id="text-entity-REMINDER-70d563b7-26ae-5327-8d3b-834d24d606bc-attr-1-key" class="er entityLabel">PK</text><rect height="22" width="62.34375" y="46" x="0" class="er attributeBoxEven"/><text style="dominant-baseline: middle; font-size: 10.2px;" transform="translate(5,57)" y="0" x="0" id="text-entity-REMINDER-70d563b7-26ae-5327-8d3b-834d24d606bc-attr-2-type" class="er entityLabel">habit_id</text><rect height="22" width="51.6328125" y="46" x="62.34375" class="er attributeBoxEven"/><text style="dominant-baseline: middle; font-size: 10.2px;" transform="translate(67.34375,57)" y="0" x="0" id="text-entity-REMINDER-70d563b7-26ae-5327-8d3b-834d24d606bc-attr-2-name" class="er entityLabel">int</text><rect height="22" width="21.5625" y="46" x="113.9765625" class="er attributeBoxEven"/><text style="dominant-baseline: middle; font-size: 10.2px;" transform="translate(118.9765625,57)" y="0" x="0" id="text-entity-REMINDER-70d563b7-26ae-5327-8d3b-834d24d606bc-attr-2-key" class="er entityLabel">FK</text><rect height="22" width="62.34375" y="68" x="0" class="er attributeBoxOdd"/><text style="dominant-baseline: middle; font-size: 10.2px;" transform="translate(5,79)" y="0" x="0" id="text-entity-REMINDER-70d563b7-26ae-5327-8d3b-834d24d606bc-attr-3-type" class="er entityLabel">time</text><rect height="22" width="51.6328125" y="68" x="62.34375" class="er attributeBoxOdd"/><text style="dominant-baseline: middle; font-size: 10.2px;" transform="translate(67.34375,79)" y="0" x="0" id="text-entity-REMINDER-70d563b7-26ae-5327-8d3b-834d24d606bc-attr-3-name" class="er entityLabel">time</text><rect height="22" width="21.5625" y="68" x="113.9765625" class="er attributeBoxOdd"/><text style="dominant-baseline: middle; font-size: 10.2px;" transform="translate(118.9765625,79)" y="0" x="0" id="text-entity-REMINDER-70d563b7-26ae-5327-8d3b-834d24d606bc-attr-3-key" class="er entityLabel"/><rect height="22" width="62.34375" y="90" x="0" class="er attributeBoxEven"/><text style="dominant-baseline: middle; font-size: 10.2px;" transform="translate(5,101)" y="0" x="0" id="text-entity-REMINDER-70d563b7-26ae-5327-8d3b-834d24d606bc-attr-4-type" class="er entityLabel">message</text><rect height="22" width="51.6328125" y="90" x="62.34375" class="er attributeBoxEven"/><text style="dominant-baseline: middle; font-size: 10.2px;" transform="translate(67.34375,101)" y="0" x="0" id="text-entity-REMINDER-70d563b7-26ae-5327-8d3b-834d24d606bc-attr-4-name" class="er entityLabel">varchar</text><rect height="22" width="21.5625" y="90" x="113.9765625" class="er attributeBoxEven"/><text style="dominant-baseline: middle; font-size: 10.2px;" transform="translate(118.9765625,101)" y="0" x="0" id="text-entity-REMINDER-70d563b7-26ae-5327-8d3b-834d24d606bc-attr-4-key" class="er entityLabel"/><rect height="22" width="62.34375" y="112" x="0" class="er attributeBoxOdd"/><text style="dominant-baseline: middle; font-size: 10.2px;" transform="translate(5,123)" y="0" x="0" id="text-entity-REMINDER-70d563b7-26ae-5327-8d3b-834d24d606bc-attr-5-type" class="er entityLabel">created_at</text><rect height="22" width="51.6328125" y="112" x="62.34375" class="er attributeBoxOdd"/><text style="dominant-baseline: middle; font-size: 10.2px;" transform="translate(67.34375,123)" y="0" x="0" id="text-entity-REMINDER-70d563b7-26ae-5327-8d3b-834d24d606bc-attr-5-name" class="er entityLabel">datetime</text><rect height="22" width="21.5625" y="112" x="113.9765625" class="er attributeBoxOdd"/><text style="dominant-baseline: middle; font-size: 10.2px;" transform="translate(118.9765625,123)" y="0" x="0" id="text-entity-REMINDER-70d563b7-26ae-5327-8d3b-834d24d606bc-attr-5-key" class="er entityLabel"/><rect height="22" width="62.34375" y="134" x="0" class="er attributeBoxEven"/><text style="dominant-baseline: middle; font-size: 10.2px;" transform="translate(5,145)" y="0" x="0" id="text-entity-REMINDER-70d563b7-26ae-5327-8d3b-834d24d606bc-attr-6-type" class="er entityLabel">updated_at</text><rect height="22" width="51.6328125" y="134" x="62.34375" class="er attributeBoxEven"/><text style="dominant-baseline: middle; font-size: 10.2px;" transform="translate(67.34375,145)" y="0" x="0" id="text-entity-REMINDER-70d563b7-26ae-5327-8d3b-834d24d606bc-attr-6-name" class="er entityLabel">datetime</text><rect height="22" width="21.5625" y="134" x="113.9765625" class="er attributeBoxEven"/><text style="dominant-baseline: middle; font-size: 10.2px;" transform="translate(118.9765625,145)" y="0" x="0" id="text-entity-REMINDER-70d563b7-26ae-5327-8d3b-834d24d606bc-attr-6-key" class="er entityLabel"/></g><rect height="14" width="17.71875" y="338.3587341308594" x="211.80335998535156" class="er relationshipLabelBox"/><text style="text-anchor: middle; dominant-baseline: middle; font-size: 12px;" y="345.3587341308594" x="220.66273498535156" id="rel1" class="er relationshipLabel">has</text><rect height="14" width="61.1953125" y="300.76727294921875" x="408.6070861816406" class="er relationshipLabelBox"/><text style="text-anchor: middle; dominant-baseline: middle; font-size: 12px;" y="307.76727294921875" x="439.2047424316406" id="rel2" class="er relationshipLabel">categorizes</text><rect height="14" width="17.71875" y="571.887451171875" x="144.0668487548828" class="er relationshipLabelBox"/><text style="text-anchor: middle; dominant-baseline: middle; font-size: 12px;" y="578.887451171875" x="152.9262237548828" id="rel3" class="er relationshipLabel">has</text><rect height="14" width="17.71875" y="607" x="317.25" class="er relationshipLabelBox"/><text style="text-anchor: middle; dominant-baseline: middle; font-size: 12px;" y="614" x="326.109375" id="rel4" class="er relationshipLabel">has</text><rect height="14" width="17.71875" y="568.8864135742188" x="486.7103271484375" class="er relationshipLabelBox"/><text style="text-anchor: middle; dominant-baseline: middle; font-size: 12px;" y="575.8864135742188" x="495.5697021484375" id="rel5" class="er relationshipLabel">has</text></svg>